/* XPM */
static char *_998_087fef7b79d36d951b366d2ad6a4d16fc6ad392edbecb345e1f4a8e4c591bb8f[] = {
/* columns rows colors chars-per-pixel */
"30 30 16 1 ",
"  c black",
". c white",
"X c black",
"o c black",
"O c black",
"+ c black",
"@ c black",
"# c black",
"$ c black",
"% c black",
"& c black",
"* c black",
"= c black",
"- c black",
"; c black",
": c black",
/* pixels */
"..............................",
".   ..........................",
".      .......................",
".         ....................",
"..           .................",
"..              ..............",
"..                 ...........",
"...                   ........",
"...                      .....",
"...                         ..",
"....                         .",
"....                        ..",
"....                     .....",
".....                 ........",
".....              ...........",
".....          ...............",
"......         ...............",
"......         ...............",
"......         ...............",
".......       ................",
".......       ................",
".......       ................",
"........     .................",
"........     .................",
"........     .................",
".........   ..................",
".........   ..................",
".........   ..................",
".......... ...................",
".............................."
};
