/* XPM */
static char *_4053_0a6a073f2274a8dc3525989d471736584b2ffd08aaf3288201ed363e3403772a[] = {
/* columns rows colors chars-per-pixel */
"30 30 16 1 ",
"  c black",
". c white",
"X c black",
"o c black",
"O c black",
"+ c black",
"@ c black",
"# c black",
"$ c black",
"% c black",
"& c black",
"* c black",
"= c black",
"- c black",
"; c black",
": c black",
/* pixels */
"..............................",
"................... ..........",
"..................   .........",
"..................   .........",
"..................   .........",
".................     ........",
".................     ........",
".................     ........",
"................       .......",
"................       .......",
"................       .......",
"...............         ......",
"...............         ......",
"...............         ......",
"...............          .....",
"...........              .....",
"........                 .....",
".....                     ....",
"..                        ....",
".                         ....",
"..                         ...",
".....                      ...",
"........                   ...",
"...........                 ..",
"..............              ..",
".................           ..",
"....................         .",
".......................      .",
"..........................   .",
".............................."
};
