/* XPM */
static char *_6761_a8bdf81a28423bb268413766debc2f0dc2bd7010f18a7b2eb1275bdd82f23876[] = {
/* columns rows colors chars-per-pixel */
"30 30 16 1 ",
"  c black",
". c white",
"X c black",
"o c black",
"O c black",
"+ c black",
"@ c black",
"# c black",
"$ c black",
"% c black",
"& c black",
"* c black",
"= c black",
"- c black",
"; c black",
": c black",
/* pixels */
"..............................",
"..........................   .",
".......................      .",
"....................         .",
".................           ..",
"..............              ..",
"...........                 ..",
"........                   ...",
".....                      ...",
"..                         ...",
".                         ....",
"..                        ....",
".....                     ....",
"........                 .....",
"...........              .....",
"...............          .....",
"...............         ......",
"...............         ......",
"...............         ......",
"................       .......",
"................       .......",
"................       .......",
".................     ........",
".................     ........",
".................     ........",
"..................   .........",
"..................   .........",
"..................   .........",
"................... ..........",
".............................."
};
