/* XPM */
static char *_854_eba49750dfab5550fb59e1bb19bfc37b4d0f373c024e811ca8f516122bf99e75[] = {
/* columns rows colors chars-per-pixel */
"30 30 16 1 ",
"  c black",
". c white",
"X c black",
"o c black",
"O c black",
"+ c black",
"@ c black",
"# c black",
"$ c black",
"% c black",
"& c black",
"* c black",
"= c black",
"- c black",
"; c black",
": c black",
/* pixels */
"..............................",
".......... ...................",
".........   ..................",
".........   ..................",
".........   ..................",
"........     .................",
"........     .................",
"........     .................",
".......       ................",
".......       ................",
".......       ................",
"......         ...............",
"......         ...............",
"......         ...............",
".....          ...............",
".....              ...........",
".....                 ........",
"....                     .....",
"....                        ..",
"....                         .",
"...                         ..",
"...                      .....",
"...                   ........",
"..                 ...........",
"..              ..............",
"..           .................",
".         ....................",
".      .......................",
".   ..........................",
".............................."
};
